<svg width="588" height="321" xmlns="http://www.w3.org/2000/svg" xmlns:xlink="http://www.w3.org/1999/xlink" xml:space="preserve" overflow="hidden"><defs><clipPath id="clip0"><rect x="0" y="0" width="588" height="321"/></clipPath><clipPath id="clip1"><rect x="0" y="0" width="588" height="321"/></clipPath><clipPath id="clip2"><rect x="0" y="0" width="587" height="321"/></clipPath><clipPath id="clip3"><rect x="-1" y="0" width="588" height="321"/></clipPath></defs><g clip-path="url(#clip0)"><g clip-path="url(#clip1)"><g clip-path="url(#clip2)"><g clip-path="url(#clip3)"><path d="M0 0 627.164 0 627.164 352.779 0 352.779Z" fill="#FFFFFF" fill-rule="nonzero" fill-opacity="1" transform="matrix(1 0 0 1.00015 -17.0714 -19.4975)"/><path d="M229.552 144.297 361.354 144.297 361.354 255.52 229.552 255.52Z" stroke="#A6A6A6" stroke-width="0.489972" stroke-linecap="butt" stroke-linejoin="miter" stroke-miterlimit="8" stroke-opacity="1" fill="none" fill-rule="nonzero" transform="matrix(1 0 0 1.00015 -17.0714 -19.4975)"/><path d="M20.8238 37.9728 150.176 37.9728 150.176 150.666 20.8238 150.666Z" stroke="#A6A6A6" stroke-width="0.489972" stroke-linecap="butt" stroke-linejoin="miter" stroke-miterlimit="8" stroke-opacity="1" fill="none" fill-rule="nonzero" transform="matrix(1 0 0 1.00015 -17.0714 -19.4975)"/><path d="M29.6433 45.8124 141.847 45.8124 141.847 131.557 29.6433 131.557Z" stroke="#7F7F7F" stroke-width="0.489972" stroke-linecap="butt" stroke-linejoin="miter" stroke-miterlimit="8" stroke-opacity="1" fill="#FFFFFF" fill-rule="nonzero" fill-opacity="1" transform="matrix(1 0 0 1.00015 -17.0714 -19.4975)"/><path d="M29.6433 45.8124 141.847 45.8124 141.847 69.821 29.6433 69.821Z" stroke="#7F7F7F" stroke-width="0.489972" stroke-linecap="butt" stroke-linejoin="miter" stroke-miterlimit="8" stroke-opacity="1" fill="#FFFFFF" fill-rule="nonzero" fill-opacity="1" transform="matrix(1 0 0 1.00015 -17.0714 -19.4975)"/><text fill="#0D0D0D" fill-opacity="1" font-family="Meiryo,Meiryo_MSFontService,sans-serif" font-style="normal" font-variant="normal" font-weight="400" font-stretch="normal" font-size="16" text-anchor="start" direction="ltr" writing-mode="lr-tb" unicode-bidi="normal" text-decoration="none" transform="matrix(0.489972 0 0 0.490045 26.1616 35)">Owner’s Distinguished </text><text fill="#0D0D0D" fill-opacity="1" font-family="Meiryo,Meiryo_MSFontService,sans-serif" font-style="normal" font-variant="normal" font-weight="400" font-stretch="normal" font-size="16" text-anchor="start" direction="ltr" writing-mode="lr-tb" unicode-bidi="normal" text-decoration="none" transform="matrix(0.489972 0 0 0.490045 57.2552 45)">Name</text><path d="M29.6433 69.8209 141.847 69.8209 141.847 93.8295 29.6433 93.8295Z" stroke="#7F7F7F" stroke-width="0.489972" stroke-linecap="butt" stroke-linejoin="miter" stroke-miterlimit="8" stroke-opacity="1" fill="#FFFFFF" fill-rule="nonzero" fill-opacity="1" transform="matrix(1 0 0 1.00015 -17.0714 -19.4975)"/><path d="M29.6433 93.8295 141.847 93.8295 141.847 117.838 29.6433 117.838Z" stroke="#7F7F7F" stroke-width="0.489972" stroke-linecap="butt" stroke-linejoin="miter" stroke-miterlimit="8" stroke-opacity="1" fill="#E2F0D9" fill-rule="nonzero" fill-opacity="1" transform="matrix(1 0 0 1.00015 -17.0714 -19.4975)"/><text fill="#0D0D0D" fill-opacity="1" font-family="Meiryo,Meiryo_MSFontService,sans-serif" font-style="normal" font-variant="normal" font-weight="400" font-stretch="normal" font-size="16" text-anchor="start" direction="ltr" writing-mode="lr-tb" unicode-bidi="normal" text-decoration="none" transform="matrix(0.489972 0 0 0.490045 43.6944 83)">Issuer’s</text><text fill="#0D0D0D" fill-opacity="1" font-family="Meiryo,Meiryo_MSFontService,sans-serif" font-style="normal" font-variant="normal" font-weight="400" font-stretch="normal" font-size="16" text-anchor="start" direction="ltr" writing-mode="lr-tb" unicode-bidi="normal" text-decoration="none" transform="matrix(0.489972 0 0 0.490045 75.7189 83)">(CA) </text><text fill="#0D0D0D" fill-opacity="1" font-family="Meiryo,Meiryo_MSFontService,sans-serif" font-style="normal" font-variant="normal" font-weight="400" font-stretch="normal" font-size="16" text-anchor="start" direction="ltr" writing-mode="lr-tb" unicode-bidi="normal" text-decoration="none" transform="matrix(0.489972 0 0 0.490045 30.4292 93)">Distinguished Name</text><path d="M29.6433 117.838 141.847 117.838 141.847 141.847 29.6433 141.847Z" stroke="#7F7F7F" stroke-width="0.489972" stroke-linecap="butt" stroke-linejoin="miter" stroke-miterlimit="8" stroke-opacity="1" fill="#FFFFFF" fill-rule="nonzero" fill-opacity="1" transform="matrix(1 0 0 1.00015 -17.0714 -19.4975)"/><text fill="#0D0D0D" fill-opacity="1" font-family="Meiryo,Meiryo_MSFontService,sans-serif" font-style="normal" font-variant="normal" font-weight="400" font-stretch="normal" font-size="16" text-anchor="start" direction="ltr" writing-mode="lr-tb" unicode-bidi="normal" text-decoration="none" transform="matrix(0.489972 0 0 0.490045 24.0531 112)">Issuer’s (CA) Signature</text><path d="M240.331 151.646 352.535 151.646 352.535 237.391 240.331 237.391Z" stroke="#7F7F7F" stroke-width="0.489972" stroke-linecap="butt" stroke-linejoin="miter" stroke-miterlimit="8" stroke-opacity="1" fill="#FFFFFF" fill-rule="nonzero" fill-opacity="1" transform="matrix(1 0 0 1.00015 -17.0714 -19.4975)"/><path d="M240.331 151.646 352.535 151.646 352.535 175.165 240.331 175.165Z" stroke="#7F7F7F" stroke-width="0.489972" stroke-linecap="butt" stroke-linejoin="miter" stroke-miterlimit="8" stroke-opacity="1" fill="#E2F0D9" fill-rule="nonzero" fill-opacity="1" transform="matrix(1 0 0 1.00015 -17.0714 -19.4975)"/><text fill="#0D0D0D" fill-opacity="1" font-family="Meiryo,Meiryo_MSFontService,sans-serif" font-style="normal" font-variant="normal" font-weight="400" font-stretch="normal" font-size="16" text-anchor="start" direction="ltr" writing-mode="lr-tb" unicode-bidi="normal" text-decoration="none" transform="matrix(0.489972 0 0 0.490045 237.561 141)">Issue</text><text fill="#0D0D0D" fill-opacity="1" font-family="Meiryo,Meiryo_MSFontService,sans-serif" font-style="normal" font-variant="normal" font-weight="400" font-stretch="normal" font-size="16" text-anchor="start" direction="ltr" writing-mode="lr-tb" unicode-bidi="normal" text-decoration="none" transform="matrix(0.489972 0 0 0.490045 257.784 141)">r</text><text fill="#0D0D0D" fill-opacity="1" font-family="Meiryo,Meiryo_MSFontService,sans-serif" font-style="normal" font-variant="normal" font-weight="400" font-stretch="normal" font-size="16" text-anchor="start" direction="ltr" writing-mode="lr-tb" unicode-bidi="normal" text-decoration="none" transform="matrix(0.489972 0 0 0.490045 261.236 141)">’s Distinguished </text><text fill="#0D0D0D" fill-opacity="1" font-family="Meiryo,Meiryo_MSFontService,sans-serif" font-style="normal" font-variant="normal" font-weight="400" font-stretch="normal" font-size="16" text-anchor="start" direction="ltr" writing-mode="lr-tb" unicode-bidi="normal" text-decoration="none" transform="matrix(0.489972 0 0 0.490045 267.864 151)">Name</text><path d="M240.331 175.165 352.535 175.165 352.535 199.173 240.331 199.173Z" stroke="#7F7F7F" stroke-width="0.489972" stroke-linecap="butt" stroke-linejoin="miter" stroke-miterlimit="8" stroke-opacity="1" fill="#FFFFFF" fill-rule="nonzero" fill-opacity="1" transform="matrix(1 0 0 1.00015 -17.0714 -19.4975)"/><path d="M240.331 199.173 352.535 199.173 352.535 223.182 240.331 223.182Z" stroke="#7F7F7F" stroke-width="0.489972" stroke-linecap="butt" stroke-linejoin="miter" stroke-miterlimit="8" stroke-opacity="1" fill="#E2F0D9" fill-rule="nonzero" fill-opacity="1" transform="matrix(1 0 0 1.00015 -17.0714 -19.4975)"/><text fill="#0D0D0D" fill-opacity="1" font-family="Meiryo,Meiryo_MSFontService,sans-serif" font-style="normal" font-variant="normal" font-weight="400" font-stretch="normal" font-size="16" text-anchor="start" direction="ltr" writing-mode="lr-tb" unicode-bidi="normal" text-decoration="none" transform="matrix(0.489972 0 0 0.490045 263.652 189)">Root</text><text fill="#0D0D0D" fill-opacity="1" font-family="Meiryo,Meiryo_MSFontService,sans-serif" font-style="normal" font-variant="normal" font-weight="400" font-stretch="normal" font-size="16" text-anchor="start" direction="ltr" writing-mode="lr-tb" unicode-bidi="normal" text-decoration="none" transform="matrix(0.489972 0 0 0.490045 283.836 189)">CA </text><text fill="#0D0D0D" fill-opacity="1" font-family="Meiryo,Meiryo_MSFontService,sans-serif" font-style="normal" font-variant="normal" font-weight="400" font-stretch="normal" font-size="16" text-anchor="start" direction="ltr" writing-mode="lr-tb" unicode-bidi="normal" text-decoration="none" transform="matrix(0.489972 0 0 0.490045 241.038 199)">Distinguished</text><text fill="#0D0D0D" fill-opacity="1" font-family="Meiryo,Meiryo_MSFontService,sans-serif" font-style="normal" font-variant="normal" font-weight="400" font-stretch="normal" font-size="16" text-anchor="start" direction="ltr" writing-mode="lr-tb" unicode-bidi="normal" text-decoration="none" transform="matrix(0.489972 0 0 0.490045 294.69 199)">N</text><text fill="#0D0D0D" fill-opacity="1" font-family="Meiryo,Meiryo_MSFontService,sans-serif" font-style="normal" font-variant="normal" font-weight="400" font-stretch="normal" font-size="16" text-anchor="start" direction="ltr" writing-mode="lr-tb" unicode-bidi="normal" text-decoration="none" transform="matrix(0.489972 0 0 0.490045 300.488 199)">ame</text><path d="M240.331 223.182 352.535 223.182 352.535 247.191 240.331 247.191Z" stroke="#7F7F7F" stroke-width="0.489972" stroke-linecap="butt" stroke-linejoin="miter" stroke-miterlimit="8" stroke-opacity="1" fill="#FFFFFF" fill-rule="nonzero" fill-opacity="1" transform="matrix(1 0 0 1.00015 -17.0714 -19.4975)"/><text fill="#0D0D0D" fill-opacity="1" font-family="Meiryo,Meiryo_MSFontService,sans-serif" font-style="normal" font-variant="normal" font-weight="400" font-stretch="normal" font-size="16" text-anchor="start" direction="ltr" writing-mode="lr-tb" unicode-bidi="normal" text-decoration="none" transform="matrix(0.489972 0 0 0.490045 244.012 218)">Root</text><text fill="#0D0D0D" fill-opacity="1" font-family="Meiryo,Meiryo_MSFontService,sans-serif" font-style="normal" font-variant="normal" font-weight="400" font-stretch="normal" font-size="16" text-anchor="start" direction="ltr" writing-mode="lr-tb" unicode-bidi="normal" text-decoration="none" transform="matrix(0.489972 0 0 0.490045 264.195 218)">CA Signature</text><path d="M457.878 256.01 570.082 256.01 570.082 280.019 457.878 280.019Z" stroke="#7F7F7F" stroke-width="0.489972" stroke-linecap="butt" stroke-linejoin="miter" stroke-miterlimit="8" stroke-opacity="1" fill="#E2F0D9" fill-rule="nonzero" fill-opacity="1" transform="matrix(1 0 0 1.00015 -17.0714 -19.4975)"/><text fill="#0D0D0D" fill-opacity="1" font-family="Meiryo,Meiryo_MSFontService,sans-serif" font-style="normal" font-variant="normal" font-weight="400" font-stretch="normal" font-size="16" text-anchor="start" direction="ltr" writing-mode="lr-tb" unicode-bidi="normal" text-decoration="none" transform="matrix(0.489972 0 0 0.490045 481.254 246)">Root CA </text><text fill="#0D0D0D" fill-opacity="1" font-family="Meiryo,Meiryo_MSFontService,sans-serif" font-style="normal" font-variant="normal" font-weight="400" font-stretch="normal" font-size="16" text-anchor="start" direction="ltr" writing-mode="lr-tb" unicode-bidi="normal" text-decoration="none" transform="matrix(0.489972 0 0 0.490045 458.64 255)">Distinguished Name</text><path d="M457.878 280.019 570.082 280.019 570.082 304.027 457.878 304.027Z" stroke="#7F7F7F" stroke-width="0.489972" stroke-linecap="butt" stroke-linejoin="miter" stroke-miterlimit="8" stroke-opacity="1" fill="#FFFFFF" fill-rule="nonzero" fill-opacity="1" transform="matrix(1 0 0 1.00015 -17.0714 -19.4975)"/><path d="M458.368 303.537 570.572 303.537 570.572 327.546 458.368 327.546Z" stroke="#7F7F7F" stroke-width="0.489972" stroke-linecap="butt" stroke-linejoin="miter" stroke-miterlimit="8" stroke-opacity="1" fill="#FFFFFF" fill-rule="nonzero" fill-opacity="1" transform="matrix(1 0 0 1.00015 -17.0714 -19.4975)"/><text fill="#0D0D0D" fill-opacity="1" font-family="Meiryo,Meiryo_MSFontService,sans-serif" font-style="normal" font-variant="normal" font-weight="400" font-stretch="normal" font-size="16" text-anchor="start" direction="ltr" writing-mode="lr-tb" unicode-bidi="normal" text-decoration="none" transform="matrix(0.489972 0 0 0.490045 462.036 298)">Root CA Signature</text><path d="M35.523 76.1092C35.523 74.5305 36.8026 73.2507 38.3812 73.2507L133.599 73.2507C135.177 73.2507 136.457 74.5305 136.457 76.1092L136.457 87.5417C136.457 89.1199 135.177 90.3997 133.599 90.3997L38.3812 90.3997C36.8026 90.3997 35.523 89.1199 35.523 87.5417Z" stroke="#2F528F" stroke-width="0.489972" stroke-linecap="butt" stroke-linejoin="miter" stroke-miterlimit="8" stroke-opacity="1" fill="#DEEBF7" fill-rule="evenodd" fill-opacity="1" transform="matrix(1 0 0 1.00015 -17.0714 -19.4975)"/><text fill="#0D0D0D" fill-opacity="1" font-family="Meiryo,Meiryo_MSFontService,sans-serif" font-style="normal" font-variant="normal" font-weight="400" font-stretch="normal" font-size="15" text-anchor="start" direction="ltr" writing-mode="lr-tb" unicode-bidi="normal" text-decoration="none" transform="matrix(0.489972 0 0 0.490045 35.3369 64)">Owner’s Public </text><text fill="#0D0D0D" fill-opacity="1" font-family="Meiryo,Meiryo_MSFontService,sans-serif" font-style="normal" font-variant="normal" font-weight="400" font-stretch="normal" font-size="15" text-anchor="start" direction="ltr" writing-mode="lr-tb" unicode-bidi="normal" text-decoration="none" transform="matrix(0.489972 0 0 0.490045 88.9888 64)">K</text><text fill="#0D0D0D" fill-opacity="1" font-family="Meiryo,Meiryo_MSFontService,sans-serif" font-style="normal" font-variant="normal" font-weight="400" font-stretch="normal" font-size="15" text-anchor="start" direction="ltr" writing-mode="lr-tb" unicode-bidi="normal" text-decoration="none" transform="matrix(0.489972 0 0 0.490045 93.7254 64)">ey</text><path d="M189.864 124.126C189.864 122.548 191.144 121.268 192.722 121.268L288.43 121.268C290.008 121.268 291.288 122.548 291.288 124.126L291.288 135.558C291.288 137.137 290.008 138.417 288.43 138.417L192.722 138.417C191.144 138.417 189.864 137.137 189.864 135.558Z" stroke="#2F528F" stroke-width="0.489972" stroke-linecap="butt" stroke-linejoin="miter" stroke-miterlimit="8" stroke-opacity="1" fill="#BDD7EE" fill-rule="evenodd" fill-opacity="1" transform="matrix(1 0 0 1.00015 -17.0714 -19.4975)"/><text fill="#0D0D0D" fill-opacity="1" font-family="Meiryo,Meiryo_MSFontService,sans-serif" font-style="normal" font-variant="normal" font-weight="400" font-stretch="normal" font-size="15" text-anchor="start" direction="ltr" writing-mode="lr-tb" unicode-bidi="normal" text-decoration="none" transform="matrix(0.489972 0 0 0.490045 188.613 111)">Issuer’s Private </text><text fill="#0D0D0D" fill-opacity="1" font-family="Meiryo,Meiryo_MSFontService,sans-serif" font-style="normal" font-variant="normal" font-weight="400" font-stretch="normal" font-size="15" text-anchor="start" direction="ltr" writing-mode="lr-tb" unicode-bidi="normal" text-decoration="none" transform="matrix(0.489972 0 0 0.490045 244.633 111)">K</text><text fill="#0D0D0D" fill-opacity="1" font-family="Meiryo,Meiryo_MSFontService,sans-serif" font-style="normal" font-variant="normal" font-weight="400" font-stretch="normal" font-size="15" text-anchor="start" direction="ltr" writing-mode="lr-tb" unicode-bidi="normal" text-decoration="none" transform="matrix(0.489972 0 0 0.490045 249.37 111)">ey</text><path d="M406.431 229.878C406.431 228.345 407.674 227.102 409.208 227.102L505.077 227.102C506.611 227.102 507.855 228.345 507.855 229.878L507.855 240.984C507.855 242.518 506.611 243.761 505.077 243.761L409.208 243.761C407.674 243.761 406.431 242.518 406.431 240.984Z" stroke="#2F528F" stroke-width="0.489972" stroke-linecap="butt" stroke-linejoin="miter" stroke-miterlimit="8" stroke-opacity="1" fill="#BDD7EE" fill-rule="evenodd" fill-opacity="1" transform="matrix(1 0 0 1.00015 -17.0714 -19.4975)"/><text fill="#0D0D0D" fill-opacity="1" font-family="Meiryo,Meiryo_MSFontService,sans-serif" font-style="normal" font-variant="normal" font-weight="400" font-stretch="normal" font-size="15" text-anchor="start" direction="ltr" writing-mode="lr-tb" unicode-bidi="normal" text-decoration="none" transform="matrix(0.489972 0 0 0.490045 404.541 217)">Root CA Private </text><text fill="#0D0D0D" fill-opacity="1" font-family="Meiryo,Meiryo_MSFontService,sans-serif" font-style="normal" font-variant="normal" font-weight="400" font-stretch="normal" font-size="15" text-anchor="start" direction="ltr" writing-mode="lr-tb" unicode-bidi="normal" text-decoration="none" transform="matrix(0.489972 0 0 0.490045 461.786 217)">K</text><text fill="#0D0D0D" fill-opacity="1" font-family="Meiryo,Meiryo_MSFontService,sans-serif" font-style="normal" font-variant="normal" font-weight="400" font-stretch="normal" font-size="15" text-anchor="start" direction="ltr" writing-mode="lr-tb" unicode-bidi="normal" text-decoration="none" transform="matrix(0.489972 0 0 0.490045 466.523 217)">ey</text><path d="M245.721 181.861C245.721 180.328 246.964 179.085 248.497 179.085L344.368 179.085C345.902 179.085 347.145 180.328 347.145 181.861L347.145 192.967C347.145 194.501 345.902 195.744 344.368 195.744L248.497 195.744C246.964 195.744 245.721 194.501 245.721 192.967Z" stroke="#2F528F" stroke-width="0.489972" stroke-linecap="butt" stroke-linejoin="miter" stroke-miterlimit="8" stroke-opacity="1" fill="#DEEBF7" fill-rule="evenodd" fill-opacity="1" transform="matrix(1 0 0 1.00015 -17.0714 -19.4975)"/><text fill="#0D0D0D" fill-opacity="1" font-family="Meiryo,Meiryo_MSFontService,sans-serif" font-style="normal" font-variant="normal" font-weight="400" font-stretch="normal" font-size="15" text-anchor="start" direction="ltr" writing-mode="lr-tb" unicode-bidi="normal" text-decoration="none" transform="matrix(0.489972 0 0 0.490045 246.427 169)">Issuer’s Public </text><text fill="#0D0D0D" fill-opacity="1" font-family="Meiryo,Meiryo_MSFontService,sans-serif" font-style="normal" font-variant="normal" font-weight="400" font-stretch="normal" font-size="15" text-anchor="start" direction="ltr" writing-mode="lr-tb" unicode-bidi="normal" text-decoration="none" transform="matrix(0.489972 0 0 0.490045 298.691 169)">K</text><text fill="#0D0D0D" fill-opacity="1" font-family="Meiryo,Meiryo_MSFontService,sans-serif" font-style="normal" font-variant="normal" font-weight="400" font-stretch="normal" font-size="15" text-anchor="start" direction="ltr" writing-mode="lr-tb" unicode-bidi="normal" text-decoration="none" transform="matrix(0.489972 0 0 0.490045 303.427 169)">ey</text><path d="M141.847 104.854 297.254 104.854 297.254 147.575 295.785 147.575 295.785 105.589 296.52 106.324 141.847 106.324ZM298.724 146.84 296.52 151.249 294.315 146.84Z" fill="#00B050" fill-rule="nonzero" fill-opacity="1" transform="matrix(1 0 0 1.00015 -17.0714 -19.4975)"/><path d="M352.535 210.688 514.936 210.688 514.936 252.363 513.466 252.363 513.466 211.423 514.201 212.158 352.535 212.158ZM516.405 251.628 514.201 256.038 511.996 251.628Z" fill="#00B050" fill-rule="nonzero" fill-opacity="1" transform="matrix(1 0 0 1.00015 -17.0714 -19.4975)"/><path d="M449.059 248.171 577.431 248.171 577.431 335.875 449.059 335.875Z" stroke="#A6A6A6" stroke-width="0.489972" stroke-linecap="butt" stroke-linejoin="miter" stroke-miterlimit="8" stroke-opacity="1" fill="none" fill-rule="nonzero" transform="matrix(1 0 0 1.00015 -17.0714 -19.4975)"/><path d="M245.959 188.324 85.255 188.324 85.255 145.522 86.725 145.522 86.725 187.589 85.99 186.854 245.959 186.854ZM83.7851 146.257 85.99 141.847 88.1949 146.257Z" fill="#4472C4" fill-rule="nonzero" fill-opacity="1" transform="matrix(1 0 0 1.00015 -17.0714 -19.4975)"/><path d="M463.467 292.665 295.453 292.665 295.453 250.865 296.923 250.865 296.923 291.93 296.188 291.195 463.467 291.195ZM293.983 251.6 296.188 247.191 298.393 251.6Z" fill="#4472C4" fill-rule="nonzero" fill-opacity="1" transform="matrix(1 0 0 1.00015 -17.0714 -19.4975)"/><path d="M463.758 286.307C463.758 284.728 465.038 283.449 466.617 283.449L561.836 283.449C563.413 283.449 564.692 284.728 564.692 286.307L564.692 297.74C564.692 299.318 563.413 300.598 561.836 300.598L466.617 300.598C465.038 300.598 463.758 299.318 463.758 297.74Z" stroke="#2F528F" stroke-width="0.489972" stroke-linecap="butt" stroke-linejoin="miter" stroke-miterlimit="8" stroke-opacity="1" fill="#DEEBF7" fill-rule="evenodd" fill-opacity="1" transform="matrix(1 0 0 1.00015 -17.0714 -19.4975)"/><text fill="#0D0D0D" fill-opacity="1" font-family="Meiryo,Meiryo_MSFontService,sans-serif" font-style="normal" font-variant="normal" font-weight="400" font-stretch="normal" font-size="15" text-anchor="start" direction="ltr" writing-mode="lr-tb" unicode-bidi="normal" text-decoration="none" transform="matrix(0.489972 0 0 0.490045 463.733 274)">Root CA Public </text><text fill="#0D0D0D" fill-opacity="1" font-family="Meiryo,Meiryo_MSFontService,sans-serif" font-style="normal" font-variant="normal" font-weight="400" font-stretch="normal" font-size="15" text-anchor="start" direction="ltr" writing-mode="lr-tb" unicode-bidi="normal" text-decoration="none" transform="matrix(0.489972 0 0 0.490045 517.222 274)">K</text><text fill="#0D0D0D" fill-opacity="1" font-family="Meiryo,Meiryo_MSFontService,sans-serif" font-style="normal" font-variant="normal" font-weight="400" font-stretch="normal" font-size="15" text-anchor="start" direction="ltr" writing-mode="lr-tb" unicode-bidi="normal" text-decoration="none" transform="matrix(0.489972 0 0 0.490045 521.958 274)">ey</text><text fill="#000000" fill-opacity="1" font-family="Meiryo,Meiryo_MSFontService,sans-serif" font-style="normal" font-variant="normal" font-weight="400" font-stretch="normal" font-size="16" text-anchor="start" direction="ltr" writing-mode="lr-tb" unicode-bidi="normal" text-decoration="none" transform="matrix(0.489972 0 0 0.490045 114.284 179)">Verify Signature</text><text fill="#000000" fill-opacity="1" font-family="Meiryo,Meiryo_MSFontService,sans-serif" font-style="normal" font-variant="normal" font-weight="400" font-stretch="normal" font-size="16" text-anchor="start" direction="ltr" writing-mode="lr-tb" unicode-bidi="normal" text-decoration="none" transform="matrix(0.489972 0 0 0.490045 334.395 284)">Verify Signature</text><text fill="#000000" fill-opacity="1" font-family="Meiryo,Meiryo_MSFontService,sans-serif" font-style="normal" font-variant="normal" font-weight="400" font-stretch="normal" font-size="16" text-anchor="start" direction="ltr" writing-mode="lr-tb" unicode-bidi="normal" text-decoration="none" transform="matrix(0.489972 0 0 0.490045 175.278 83)">Reference</text><text fill="#000000" fill-opacity="1" font-family="Meiryo,Meiryo_MSFontService,sans-serif" font-style="normal" font-variant="normal" font-weight="400" font-stretch="normal" font-size="16" text-anchor="start" direction="ltr" writing-mode="lr-tb" unicode-bidi="normal" text-decoration="none" transform="matrix(0.489972 0 0 0.490045 377.094 189)">Reference</text><text fill="#000000" fill-opacity="1" font-family="Meiryo,Meiryo_MSFontService,sans-serif" font-style="normal" font-variant="normal" font-weight="700" font-stretch="normal" font-size="19" text-anchor="start" direction="ltr" writing-mode="lr-tb" unicode-bidi="normal" text-decoration="none" transform="matrix(0.489972 0 0 0.490045 73.8482 10)">End Entity Certificate</text><text fill="#000000" fill-opacity="1" font-family="Meiryo,Meiryo_MSFontService,sans-serif" font-style="normal" font-variant="normal" font-weight="700" font-stretch="normal" font-size="19" text-anchor="start" direction="ltr" writing-mode="lr-tb" unicode-bidi="normal" text-decoration="none" transform="matrix(0.489972 0 0 0.490045 288.629 115)">Intermediate Certificate</text><text fill="#000000" fill-opacity="1" font-family="Meiryo,Meiryo_MSFontService,sans-serif" font-style="normal" font-variant="normal" font-weight="700" font-stretch="normal" font-size="19" text-anchor="start" direction="ltr" writing-mode="lr-tb" unicode-bidi="normal" text-decoration="none" transform="matrix(0.489972 0 0 0.490045 505.593 219)">Roo</text><text fill="#000000" fill-opacity="1" font-family="Meiryo,Meiryo_MSFontService,sans-serif" font-style="normal" font-variant="normal" font-weight="700" font-stretch="normal" font-size="19" text-anchor="start" direction="ltr" writing-mode="lr-tb" unicode-bidi="normal" text-decoration="none" transform="matrix(0.489972 0 0 0.490045 524.202 219)">t</text><text fill="#000000" fill-opacity="1" font-family="Meiryo,Meiryo_MSFontService,sans-serif" font-style="normal" font-variant="normal" font-weight="700" font-stretch="normal" font-size="19" text-anchor="start" direction="ltr" writing-mode="lr-tb" unicode-bidi="normal" text-decoration="none" transform="matrix(0.489972 0 0 0.490045 531.143 219)">Certificate</text><path d="M406.564 236.17 402.154 236.17 402.154 234.7 406.564 234.7ZM400.684 236.17 396.274 236.169 396.274 234.699 400.684 234.7ZM394.804 236.169 390.395 236.169 390.395 234.699 394.804 234.699ZM388.925 236.169 384.515 236.168 384.515 234.698 388.925 234.699ZM383.045 236.168 378.635 236.168 378.635 234.698 383.045 234.698ZM377.165 236.168 372.756 236.168 372.756 234.698 377.165 234.698ZM371.286 236.168 366.876 236.167 366.876 234.697 371.286 234.698ZM365.406 236.167 360.996 236.167 360.996 234.697 365.406 234.697ZM359.526 236.167 356.209 236.167 356.209 234.697 359.526 234.697ZM356.944 237.637 352.535 235.431 356.944 233.227Z" fill="#0070C0" fill-rule="nonzero" fill-opacity="1" transform="matrix(1 0 0 1.00015 -17.0714 -19.4975)"/><text fill="#000000" fill-opacity="1" font-family="Meiryo,Meiryo_MSFontService,sans-serif" font-style="normal" font-variant="normal" font-weight="400" font-stretch="normal" font-size="16" text-anchor="start" direction="ltr" writing-mode="lr-tb" unicode-bidi="normal" text-decoration="none" transform="matrix(0.489972 0 0 0.490045 358.141 212)">Sign</text><path d="M0.00015721-0.734957 4.4099-0.734012 4.40959 0.735903-0.00015721 0.734957ZM5.87981-0.733698 10.2895-0.732757 10.2893 0.737157 5.87951 0.736217ZM11.7595-0.732444 16.1692-0.731498 16.1689 0.738416 11.7592 0.737471ZM17.6391-0.731185 22.0489-0.730239 22.0486 0.739676 17.6388 0.73873ZM23.5188-0.729925 27.9285-0.728985 27.9282 0.74093 23.5185 0.739989ZM29.3984-0.728671 33.8082-0.727725 33.8079 0.742189 29.3981 0.741244ZM35.2781-0.727412 39.6878-0.726466 39.6875 0.743448 35.2778 0.742503ZM41.1578-0.726152 44.4225-0.725457 44.4221 0.744458 41.1575 0.743762ZM43.6878-2.19553 48.097 0.0102881 43.6868 2.21422Z" fill="#4472C4" fill-rule="nonzero" fill-opacity="1" transform="matrix(-1 -8.7436e-08 -8.74228e-08 1.00015 172.872 110.119)"/><text fill="#000000" fill-opacity="1" font-family="Meiryo,Meiryo_MSFontService,sans-serif" font-style="normal" font-variant="normal" font-weight="400" font-stretch="normal" font-size="16" text-anchor="start" direction="ltr" writing-mode="lr-tb" unicode-bidi="normal" text-decoration="none" transform="matrix(0.489972 0 0 0.490045 142.278 106)">Sign</text><path d="M0-0.734957 4.40974-0.734957 4.40974 0.734957 0 0.734957ZM5.87966-0.734957 10.2894-0.734957 10.2894 0.734957 5.87966 0.734957ZM11.7593-0.734957 16.1691-0.734957 16.1691 0.734957 11.7593 0.734957ZM17.639-0.734957 22.0487-0.734957 22.0487 0.734957 17.639 0.734957ZM23.5186-0.734957 27.9284-0.734957 27.9284 0.734957 23.5186 0.734957ZM29.3983-0.734957 33.808-0.734957 33.808 0.734957 29.3983 0.734957ZM35.278-0.734957 39.6877-0.734957 39.6877 0.734957 35.278 0.734957ZM41.1576-0.734957 45.5674-0.734957 45.5674 0.734957 41.1576 0.734957ZM47.0373-0.734957 51.447-0.734957 51.447 0.734957 47.0373 0.734957ZM52.9169-0.734957 57.3267-0.734957 57.3267 0.734957 52.9169 0.734957ZM58.7966-0.734957 63.2063-0.734957 63.2063 0.734957 58.7966 0.734957ZM64.6762-0.734957 69.086-0.734957 69.086 0.734957 64.6762 0.734957ZM70.5559-0.734957 72.5878-0.734957 72.5878 3.11282 71.1179 3.11282 71.1179 0 71.8529 0.734957 70.5559 0.734957ZM72.5878 4.58274 72.5878 8.9925 71.1179 8.9925 71.1179 4.58274ZM72.5878 10.4624 72.5878 14.8722 71.1179 14.8722 71.1179 10.4624ZM72.5878 16.3421 72.5878 20.7518 71.1179 20.7518 71.1179 16.3421ZM72.5878 22.2217 72.5878 26.6315 71.1179 26.6315 71.1179 22.2217ZM72.5878 28.1014 72.5878 29.848 71.1179 29.848 71.1179 28.1014ZM74.0577 29.1131 71.8529 33.5229 69.648 29.1131Z" fill="#4472C4" fill-rule="nonzero" fill-opacity="1" transform="matrix(-4.37114e-08 1.00015 1 4.3718e-08 407.979 224.3)"/><text fill="#000000" fill-opacity="1" font-family="Meiryo,Meiryo_MSFontService,sans-serif" font-style="normal" font-variant="normal" font-weight="400" font-stretch="normal" font-size="16" text-anchor="start" direction="ltr" writing-mode="lr-tb" unicode-bidi="normal" text-decoration="none" transform="matrix(0.489972 0 0 0.490045 371.242 251)">Self</text><text fill="#000000" fill-opacity="1" font-family="Meiryo,Meiryo_MSFontService,sans-serif" font-style="normal" font-variant="normal" font-weight="400" font-stretch="normal" font-size="16" text-anchor="start" direction="ltr" writing-mode="lr-tb" unicode-bidi="normal" text-decoration="none" transform="matrix(0.489972 0 0 0.490045 385.288 251)">-</text><text fill="#000000" fill-opacity="1" font-family="Meiryo,Meiryo_MSFontService,sans-serif" font-style="normal" font-variant="normal" font-weight="400" font-stretch="normal" font-size="16" text-anchor="start" direction="ltr" writing-mode="lr-tb" unicode-bidi="normal" text-decoration="none" transform="matrix(0.489972 0 0 0.490045 388.718 251)">Sign</text></g></g></g></g></svg>