<svg xmlns="http://www.w3.org/2000/svg" viewBox="0 0 30 30"><g fill="#333"><circle cx="15" cy="15" r="3"/><circle cx="5" cy="7" r="2.5"/><circle cx="25" cy="7" r="2.5"/><circle cx="5" cy="23" r="2.5"/><circle cx="25" cy="23" r="2.5"/><rect x="14" y="3" width="2" height="10" rx="1"/><rect x="14" y="17" width="2" height="10" rx="1"/><rect x="3" y="14" width="10" height="2" rx="1"/><rect x="17" y="14" width="10" height="2" rx="1"/><rect x="6.4" y="8.6" width="2" height="8" rx="1" transform="rotate(-45 7.4 12.6)"/><rect x="21.6" y="8.6" width="2" height="8" rx="1" transform="rotate(45 22.6 12.6)"/><rect x="6.4" y="13.4" width="2" height="8" rx="1" transform="rotate(45 7.4 17.4)"/><rect x="21.6" y="13.4" width="2" height="8" rx="1" transform="rotate(-45 22.6 17.4)"/></g></svg>
