<svg id="Layer_1" data-name="Layer 1" xmlns="http://www.w3.org/2000/svg" viewBox="0 0 30 30"><defs><style>.cls-1{fill:#333;}</style></defs><title>info-speech-bubble_BOLD</title><path class="cls-1" d="M27,3H3A1,1,0,0,0,2,4V17a4,4,0,0,0,4,4H8v5a1,1,0,0,0,.55.89,1,1,0,0,0,1-.09L17.33,21H24a4,4,0,0,0,4-4V4A1,1,0,0,0,27,3ZM26,17a2,2,0,0,1-2,2H17a1,1,0,0,0-.6.2L10,24V20a1,1,0,0,0-1-1H6a2,2,0,0,1-2-2V5H26Z"/><circle class="cls-1" cx="15" cy="8.5" r="1.5"/><path class="cls-1" d="M16.5,11a3,3,0,0,0-3,3v3h3Z"/></svg>