<svg xmlns="http://www.w3.org/2000/svg" viewBox="0 0 30 30"><path fill="#333" d="m25.125 7.522-2.647-2.647a2.99 2.99 0 0 0-4.222 0l-12.46 12.46c-.45.45-.74 1.018-.842 1.645l-1.17 7.236 7.234-1.17c.627-.1 1.196-.39 1.647-.842l9.896-9.896 2.564-2.563A2.97 2.97 0 0 0 26 9.633a2.96 2.96 0 0 0-.875-2.111M6.2 23.8l.67-4.137 2.773.693.693 2.774zm5.9-1.86-.662-2.65a1 1 0 0 0-.728-.728L8.06 17.9l8.34-8.34 4.04 4.042-8.34 8.34zm11.61-11.61-1.856 1.857-4.04-4.042 1.856-1.856a.983.983 0 0 1 1.393 0l2.648 2.647a.98.98 0 0 1 .289.697.98.98 0 0 1-.29.697" style="fill:#fff"/></svg>